<?xml version="1.0" ?><svg data-name="Layer 1" id="Layer_1" viewBox="0 0 32 32" xmlns="http://www.w3.org/2000/svg" xmlns:xlink="http://www.w3.org/1999/xlink"><defs><style>.cls-1{fill:url(#linear-gradient);}.cls-2{fill:url(#linear-gradient-2);}.cls-3{fill:#1282ff;}</style><linearGradient gradientUnits="userSpaceOnUse" id="linear-gradient" x1="16" x2="16" y1="3" y2="29"><stop offset="0.24" stop-color="#cdeaff"/><stop offset="0.34" stop-color="#c2e4ff"/><stop offset="0.5" stop-color="#a5d5ff"/><stop offset="0.72" stop-color="#76bcff"/><stop offset="0.98" stop-color="#369aff"/><stop offset="1" stop-color="#3197ff"/></linearGradient><linearGradient gradientTransform="translate(-6 26) rotate(-90)" gradientUnits="userSpaceOnUse" id="linear-gradient-2" x1="-5.71" x2="7.29" y1="22" y2="22"><stop offset="0.36" stop-color="#e2edff"/><stop offset="1" stop-color="#85c7ff"/></linearGradient></defs><title/><rect class="cls-1" height="26" width="28" x="2" y="3"/><rect class="cls-2" height="13" width="28" x="2" y="16"/><path class="cls-3" d="M1,2V30H31V2ZM29,28H3V4H29Z"/><rect class="cls-3" height="2" width="6" x="19" y="10"/><rect class="cls-3" height="2" width="6" x="19" y="18"/><rect class="cls-3" height="2" width="6" x="19" y="22"/><polygon class="cls-3" points="12 7 10 7 10 10 7 10 7 12 10 12 10 15 12 15 12 12 15 12 15 10 12 10 12 7"/><polygon class="cls-3" points="14.34 16.84 11.47 19.71 8.63 16.87 7.37 18.13 10.21 20.97 7.34 23.84 8.64 25.14 11.51 22.27 14.37 25.13 15.63 23.87 12.77 21.02 15.64 18.14 14.34 16.84"/></svg>